<svg width="244" height="57" fill="none" xmlns="http://www.w3.org/2000/svg"><path d="M21.247 55.804c-4.195 0-7.948-.948-11.155-2.812-3.214-1.868-5.731-4.55-7.475-7.963C.881 41.63 0 37.629 0 33.125s.912-8.664 2.71-12.14c1.801-3.49 4.345-6.21 7.563-8.078 3.207-1.864 6.902-2.812 10.978-2.812 3.556 0 6.767.705 9.538 2.088 2.775 1.39 5.042 3.375 6.736 5.894 1.69 2.52 2.69 5.49 2.971 8.822l.05.597H33.71l-.073-.47c-.485-3.22-1.855-5.81-4.072-7.697-2.217-1.884-5.039-2.839-8.376-2.839-2.783 0-5.277.674-7.413 2.007-2.133 1.33-3.818 3.244-5 5.686-1.193 2.462-1.798 5.355-1.798 8.587 0 3.233.612 6.203 1.825 8.707 1.205 2.48 2.917 4.438 5.088 5.805 2.175 1.368 4.708 2.066 7.525 2.066 3.188 0 5.901-.883 8.064-2.616 2.16-1.734 3.56-4.088 4.157-7.008l.093-.44h6.851l-.092.633c-.724 4.861-2.795 8.768-6.159 11.611-3.36 2.84-7.764 4.28-13.083 4.28m39.749-28.136c-2.876 0-5.112.987-6.84 3.013-1.728 2.026-2.602 4.746-2.602 8.086s.874 6.122 2.602 8.144c1.728 2.03 3.965 3.013 6.84 3.013s5.111-.986 6.843-3.013c1.729-2.026 2.603-4.765 2.603-8.144 0-3.379-.874-6.06-2.602-8.086-1.729-2.03-3.969-3.013-6.844-3.013zm0 28.189c-3.184 0-6.028-.728-8.453-2.165-2.432-1.441-4.334-3.487-5.646-6.08-1.31-2.577-1.971-5.551-1.971-8.841 0-3.29.673-6.318 2.002-8.876 1.335-2.573 3.248-4.6 5.68-6.017 2.43-1.418 5.25-2.135 8.392-2.135 3.14 0 5.966.717 8.39 2.135 2.433 1.421 4.343 3.432 5.678 5.99 1.328 2.539 2.005 5.517 2.005 8.845 0 3.329-.673 6.384-2.001 8.961-1.336 2.593-3.249 4.63-5.681 6.052-2.43 1.418-5.25 2.135-8.391 2.135m96.873-20.526h17.279c-.396-2.277-1.309-4.11-2.71-5.463-1.532-1.48-3.418-2.2-5.762-2.2-2.344 0-4.299.744-5.889 2.212-1.47 1.348-2.448 3.186-2.918 5.455m9.219 20.464c-3.179 0-6.005-.71-8.391-2.108-2.394-1.402-4.265-3.417-5.562-5.994-1.289-2.558-1.94-5.54-1.94-8.868 0-3.329.655-6.384 1.94-8.957 1.297-2.597 3.149-4.623 5.501-6.025 2.351-1.399 5.076-2.108 8.102-2.108 3.025 0 5.654.69 7.925 2.05 2.275 1.363 4.049 3.301 5.269 5.76 1.209 2.438 1.821 5.246 1.821 8.336v3.14h-24.038c.374 2.63 1.371 4.753 2.968 6.321 1.709 1.672 3.922 2.52 6.582 2.52 1.955 0 3.68-.5 5.127-1.491 1.447-.99 2.344-2.27 2.748-3.914l.1-.42h6.355l-.084.624c-.447 3.313-2.002 6.025-4.615 8.071-2.598 2.03-5.897 3.059-9.808 3.059m40.231-.438h-6.313c-2.798 0-5.1-.833-6.847-2.477-1.752-1.65-2.641-3.834-2.641-6.492V29.588h-7.055v-5.929h7.055v-7.65h6.394v7.65h9.407v5.929h-9.407v16.689c0 .994.281 1.749.862 2.311.585.57 1.355.844 2.352.844h6.197v5.929l-.004.004zm19.97-27.693c-2.876 0-5.112.987-6.844 3.013-1.728 2.026-2.602 4.746-2.602 8.086s.874 6.122 2.602 8.144c1.728 2.03 3.968 3.013 6.844 3.013 2.875 0 5.111-.986 6.843-3.013 1.725-2.026 2.602-4.765 2.602-8.144 0-3.379-.874-6.06-2.602-8.086-1.728-2.03-3.968-3.013-6.843-3.013zm0 28.189c-3.184 0-6.028-.728-8.453-2.165-2.433-1.441-4.334-3.487-5.651-6.08-1.308-2.577-1.97-5.551-1.97-8.841 0-3.29.673-6.318 2.005-8.876 1.336-2.573 3.245-4.6 5.677-6.017 2.429-1.418 5.251-2.135 8.392-2.135 3.14 0 5.966.717 8.391 2.135 2.431 1.421 4.341 3.432 5.682 5.99 1.326 2.539 2.001 5.517 2.001 8.845 0 3.329-.675 6.384-2.001 8.961-1.337 2.593-3.246 4.63-5.682 6.052-2.425 1.418-5.251 2.135-8.391 2.135m-115.89-.496h-6.154V34.993c0-4.642-3.776-8.418-8.41-8.418-4.635 0-8.41 3.776-8.41 8.418v20.376h-6.156V35.17c0-8.04 6.536-14.581 14.57-14.581 8.032 0 14.568 6.541 14.568 14.581v20.2h-.008zm34.719 0h-6.155V34.993c0-4.642-3.776-8.418-8.41-8.418s-8.41 3.776-8.41 8.418v20.376h-6.159V35.17c0-8.04 6.536-14.581 14.569-14.581 8.033 0 14.569 6.541 14.569 14.581v20.2h-.004zM68.844 5.139l.952 5.547c30.418-5.23 57.548-5.23 87.969 0l.952-5.547c-15.542-2.667-30.24-4.004-44.941-4.004-14.702 0-29.396 1.337-44.932 4.004z" fill="#F0F0F0"/></svg>